name Run_20002_GRF.mot
datacolumns 19
datarows 25
range 1.556 1.58
endheader
time	     ground_force_vx	     ground_force_vy	     ground_force_vz	     ground_force_px	     ground_force_py	     ground_force_pz	   l_ground_force_vx	   l_ground_force_vy	   l_ground_force_vz	   l_ground_force_px	   l_ground_force_py	   l_ground_force_pz	     ground_torque_x	     ground_torque_y	     ground_torque_z	   l_ground_torque_x	   l_ground_torque_y	   l_ground_torque_z	
1.556	          0.00000000	          0.00000000	          0.00000000	          0.00000000	          0.00000000	          0.00000000	         63.35006700	       1156.20690900	         18.08012800	          0.91284700	          0.00000000	         -0.38111900	          0.00000000	          0.00000000	          0.00000000	          0.00000000	          6.38842100	          0.00000000	
1.557	          0.00000000	          0.00000000	          0.00000000	          0.00000000	          0.00000000	          0.00000000	         65.12479400	       1145.64416500	         17.02010900	          0.91149300	          0.00000000	         -0.38101000	          0.00000000	          0.00000000	          0.00000000	          0.00000000	          6.59278200	          0.00000000	
1.558	          0.00000000	          0.00000000	          0.00000000	          0.00000000	          0.00000000	          0.00000000	         66.86097700	       1134.98986800	         15.95037700	          0.91013600	          0.00000000	         -0.38090000	          0.00000000	          0.00000000	          0.00000000	          0.00000000	          6.79418400	          0.00000000	
1.559	          0.00000000	          0.00000000	          0.00000000	          0.00000000	          0.00000000	          0.00000000	         68.55774700	       1124.24890100	         14.87383800	          0.90877700	          0.00000000	         -0.38078800	          0.00000000	          0.00000000	          0.00000000	          0.00000000	          6.99222300	          0.00000000	
1.56	          0.00000000	          0.00000000	          0.00000000	          0.00000000	          0.00000000	          0.00000000	         70.21458400	       1113.42614700	         13.79352800	          0.90741600	          0.00000000	         -0.38067400	          0.00000000	          0.00000000	          0.00000000	          0.00000000	          7.18650000	          0.00000000	
1.561	          0.00000000	          0.00000000	          0.00000000	          0.00000000	          0.00000000	          0.00000000	         71.83126800	       1102.52710000	         12.71258500	          0.90605500	          0.00000000	         -0.38055900	          0.00000000	          0.00000000	          0.00000000	          0.00000000	          7.37661900	          0.00000000	
1.562	          0.00000000	          0.00000000	          0.00000000	          0.00000000	          0.00000000	          0.00000000	         73.40789800	       1091.55737300	         11.63424300	          0.90469500	          0.00000000	         -0.38044300	          0.00000000	          0.00000000	          0.00000000	          0.00000000	          7.56219600	          0.00000000	
1.563	          0.00000000	          0.00000000	          0.00000000	          0.00000000	          0.00000000	          0.00000000	         74.94480100	       1080.52246100	         10.56179000	          0.90333400	          0.00000000	         -0.38032500	          0.00000000	          0.00000000	          0.00000000	          0.00000000	          7.74285200	          0.00000000	
1.564	          0.00000000	          0.00000000	          0.00000000	          0.00000000	          0.00000000	          0.00000000	         76.44254300	       1069.42846700	          9.49855100	          0.90197400	          0.00000000	         -0.38020500	          0.00000000	          0.00000000	          0.00000000	          0.00000000	          7.91822100	          0.00000000	
1.565	          0.00000000	          0.00000000	          0.00000000	          0.00000000	          0.00000000	          0.00000000	         77.90186300	       1058.28076200	          8.44785700	          0.90061500	          0.00000000	         -0.38008400	          0.00000000	          0.00000000	          0.00000000	          0.00000000	          8.08794600	          0.00000000	
1.566	          0.00000000	          0.00000000	          0.00000000	          0.00000000	          0.00000000	          0.00000000	         79.32364700	       1047.08532700	          7.41301500	          0.89925700	          0.00000000	         -0.37996100	          0.00000000	          0.00000000	          0.00000000	          0.00000000	          8.25168500	          0.00000000	
1.567	          0.00000000	          0.00000000	          0.00000000	          0.00000000	          0.00000000	          0.00000000	         80.70886200	       1035.84765600	          6.39727800	          0.89789800	          0.00000000	         -0.37983500	          0.00000000	          0.00000000	          0.00000000	          0.00000000	          8.40910900	          0.00000000	
1.568	          0.00000000	          0.00000000	          0.00000000	          0.00000000	          0.00000000	          0.00000000	         82.05857100	       1024.57299800	          5.40381700	          0.89654000	          0.00000000	         -0.37970800	          0.00000000	          0.00000000	          0.00000000	          0.00000000	          8.55990500	          0.00000000	
1.569	          0.00000000	          0.00000000	          0.00000000	          0.00000000	          0.00000000	          0.00000000	         83.37381700	       1013.26647900	          4.43568900	          0.89518100	          0.00000000	         -0.37957800	          0.00000000	          0.00000000	          0.00000000	          0.00000000	          8.70377500	          0.00000000	
1.57	          0.00000000	          0.00000000	          0.00000000	          0.00000000	          0.00000000	          0.00000000	         84.65565500	       1001.93304400	          3.49580900	          0.89382100	          0.00000000	         -0.37944500	          0.00000000	          0.00000000	          0.00000000	          0.00000000	          8.84044100	          0.00000000	
1.571	          0.00000000	          0.00000000	          0.00000000	          0.00000000	          0.00000000	          0.00000000	         85.90509000	        990.57727100	          2.58692300	          0.89246000	          0.00000000	         -0.37930900	          0.00000000	          0.00000000	          0.00000000	          0.00000000	          8.96964000	          0.00000000	
1.572	          0.00000000	          0.00000000	          0.00000000	          0.00000000	          0.00000000	          0.00000000	         87.12302400	        979.20355200	          1.71158200	          0.89109500	          0.00000000	         -0.37917000	          0.00000000	          0.00000000	          0.00000000	          0.00000000	          9.09113100	          0.00000000	
1.573	          0.00000000	          0.00000000	          0.00000000	          0.00000000	          0.00000000	          0.00000000	         88.31026500	        967.81591800	          0.87211800	          0.88972800	          0.00000000	         -0.37902700	          0.00000000	          0.00000000	          0.00000000	          0.00000000	          9.20469300	          0.00000000	
1.574	          0.00000000	          0.00000000	          0.00000000	          0.00000000	          0.00000000	          0.00000000	         89.46746100	        956.41809100	          0.07062200	          0.88835700	          0.00000000	         -0.37888100	          0.00000000	          0.00000000	          0.00000000	          0.00000000	          9.31012300	          0.00000000	
1.575	          0.00000000	          0.00000000	          0.00000000	          0.00000000	          0.00000000	          0.00000000	         90.59508500	        945.01348900	         -0.69107300	          0.88698200	          0.00000000	         -0.37873100	          0.00000000	          0.00000000	          0.00000000	          0.00000000	          9.40724400	          0.00000000	
1.576	          0.00000000	          0.00000000	          0.00000000	          0.00000000	          0.00000000	          0.00000000	         91.69341300	        933.60534700	         -1.41141000	          0.88560100	          0.00000000	         -0.37857700	          0.00000000	          0.00000000	          0.00000000	          0.00000000	          9.49589800	          0.00000000	
1.577	          0.00000000	          0.00000000	          0.00000000	          0.00000000	          0.00000000	          0.00000000	         92.76248900	        922.19647200	         -2.08911500	          0.88421600	          0.00000000	         -0.37841800	          0.00000000	          0.00000000	          0.00000000	          0.00000000	          9.57595300	          0.00000000	
1.578	          0.00000000	          0.00000000	          0.00000000	          0.00000000	          0.00000000	          0.00000000	         93.80208600	        910.78942900	         -2.72321400	          0.88282500	          0.00000000	         -0.37825500	          0.00000000	          0.00000000	          0.00000000	          0.00000000	          9.64729400	          0.00000000	
1.579	          0.00000000	          0.00000000	          0.00000000	          0.00000000	          0.00000000	          0.00000000	         94.81172900	        899.38641400	         -3.31303000	          0.88142700	          0.00000000	         -0.37808800	          0.00000000	          0.00000000	          0.00000000	          0.00000000	          9.70983500	          0.00000000	
1.58	          0.00000000	          0.00000000	          0.00000000	          0.00000000	          0.00000000	          0.00000000	         95.79062700	        887.98938000	         -3.85819100	          0.88002400	          0.00000000	         -0.37791600	          0.00000000	          0.00000000	          0.00000000	          0.00000000	          9.76351100	          0.00000000	
